<?xml version="1.0" encoding="utf-8"?>
<!-- Generator: Adobe Illustrator 23.0.1, SVG Export Plug-In . SVG Version: 6.00 Build 0)  -->
<svg version="1.1" id="Layer_1" xmlns="http://www.w3.org/2000/svg" xmlns:xlink="http://www.w3.org/1999/xlink" x="0px" y="0px"
	 viewBox="0 0 900 900" style="enable-background:new 0 0 900 900;" xml:space="preserve">
<style type="text/css">
	.st0{fill:#1D1D1B;}
</style>
<g>
	<g>
		<path d="M57.7,358.1c3.7-9.5,10-16.6,20-14.5c7,1.4,11.7,6.5,13.8,13.2c1.9,6,1.8,11.4,0.4,18.6l-5.2,25.3l-2.9-0.6
			c1-8.9,0.2-9.6-8-11.3l-41.2-8.5c-8.5-1.8-9.4-1-11.9,7.2l-2.9-0.6l5.5-26.9c1.6-7.7,3.9-12.3,6.8-15.1c3.2-3.1,7.5-4.8,12.7-3.7
			C54.6,343.3,57.4,352.1,57.7,358.1z M54,369.7c2.3-11.3-1.2-16.8-9.7-18.6c-7.2-1.5-13.6,1.8-15.7,11.7c-0.6,2.9-0.7,4.8-0.2,6
			c0.4,0.9,1.5,1.5,4.8,2.2l19.6,4L54,369.7z M77.4,379.9c7.4,1.5,9.6,0.2,11.1-7.1c1.6-8-1.1-16.7-11.8-18.9
			c-10.5-2.2-16.5,4.3-19.1,16.8l-1,4.9L77.4,379.9z"/>
		<path d="M103.2,285.3c2.3,1.6,11.4,8.1,13.9,10.2l-18.3,47.6l-2.7-1.1c2.8-9.4,2.2-10.4-5.8-13.5l-38.7-14.9
			c-8.7-3.3-9.6-2.5-13.1,4.6l-2.7-1.1l11.5-29.9c3.5-9.2,4.9-13.1,5.3-14.3c2.5,0.8,10,3.3,15.3,4.9l-0.6,3.1
			c-3.7-0.4-6.1-0.2-8.6,0.1c-3.8,0.3-5.4,2.3-7.6,8.2l-3.6,9.3c-1.2,3-0.9,3.3,1.9,4.4l21.6,8.3l4.2-10.9c2.8-7.3,1.5-8.4-4.7-12.1
			l1.2-3l20.2,7.7l-1.2,3c-7.5-1.4-8.8-1-11.5,6L75,312.9l19.5,7.5c6.9,2.6,8.3,0.7,10.2-4.2l3.5-9.1c2.3-6,1.8-7.3,0.1-10.4
			c-1.3-2.6-4.6-6.2-7-8.7L103.2,285.3z"/>
		<path d="M104.5,213.3c-3.4-0.9-7-1.6-9.2-1.6c-3.3,0-4.5,0.5-7.4,5.5l-5.4,9l43.9,26.1c7,4.2,8.5,4,14.1-4.2l2.5,1.5l-15.6,26.2
			l-2.5-1.5c4.4-8.7,4-10-3.2-14.2l-43.9-26.1l-4.9,8.2c-2.9,5-3.3,6.7-1.5,9.9c1.2,2.2,2.9,4.2,5.5,7.3l-1.6,2.7
			c-5.2-3.8-10.5-7.7-15.4-11l1.2-2.1c3-0.1,3.5-1.1,5-3.6l21.2-35.7c1.5-2.5,1.6-3.5,0.7-5.8l1.3-2.2c4.2,2.5,10.9,6,16.4,8.7
			L104.5,213.3z"/>
		<path d="M173.4,209.7l-2.3-1.9c3.7-5.8,3.4-7.1-0.6-8.5c-4-1.6-9.4-3.3-15.9-5.8L140.2,211c2.6,4.3,4.7,8.1,7.1,12
			c3.8,6.1,5.4,5.5,11.7-0.4l2.3,1.9l-15.5,18.6l-2.3-1.9c3.6-5.6,4.1-7.4-0.8-16.2l-28.5-51.8l1.7-3c18,6.4,37.9,13.4,56.1,19.9
			c9.2,3.2,10.4,3.1,15.8-2.1l2.3,1.9L173.4,209.7z M123.7,182.1c4.8,8.3,9.9,17.2,14.2,24.9l12.5-15.1L123.7,182.1z"/>
		<path d="M219.9,141.7c1.7,2.9,6.4,13.2,7.7,16.3l-36.9,31.9l-1.9-2.2c6.6-7,6.9-7.9,1.1-14.6l-27.2-31.5c-5.8-6.7-7-6.4-13.9-1.6
			l-1.9-2.2l21.2-18.4l1.9,2.2c-5.8,6.1-6.4,7.2-0.5,14l27.9,32.3c4.2,4.8,5.8,5.4,10.4,1.6c0.1-0.1,5.9-4.9,6.3-5.3
			c4-3.5,4.8-5,4.9-8.6c0.2-3.8-0.9-8.4-2.2-12.4L219.9,141.7z"/>
		<path d="M270.2,130.7l-1.5-2.5c5.4-4.2,5.6-5.5,2.3-8.2c-3.3-2.8-7.7-6.3-13-10.8l-19.5,11.6c1,4.9,1.7,9.2,2.6,13.7
			c1.5,7,3.2,7,11.1,3.5l1.5,2.5l-20.8,12.4l-1.5-2.5c5.3-4.1,6.3-5.6,4.7-15.6l-9.4-58.4l2.6-2.3c14.8,12.1,31.2,25.4,46.1,37.6
			c7.5,6.1,8.8,6.4,15.6,3.3l1.5,2.5L270.2,130.7z M232.6,88c1.7,9.5,3.5,19.5,5,28.2l16.9-10L232.6,88z"/>
		<path d="M369.3,92.5l-0.8-2.8c8.1-3,8.2-3.7,5.2-14.5l-11-41.4c-3.3,20.8-8.9,53.3-10.1,63.2l-2.6,0.7
			c-5.9-8.3-24.8-33.1-37.4-49.4c7.8,35.9,9.8,43.9,10.3,45.9c1.6,5.6,4.4,5.8,11.4,4.6l0.8,2.8l-24,6.4l-0.8-2.8
			c5.7-2.2,7.8-4,7.2-9.7c-0.6-4.6-1.5-8.3-8.7-46c-1-5.4-2.5-6.8-11.6-5.2l-0.8-2.8l17.6-4.7l36.1,45.4l10.2-57.8l17.7-4.8l0.8,2.8
			c-8.4,3.3-9.3,4.6-7.2,11.6l10.8,38.8c3.3,10.7,3.7,11.2,12.9,9.7l0.8,2.8L369.3,92.5z"/>
		<path d="M455.9,66.5c-0.5,2.8-2.7,13.7-3.6,16.9l-50.9,2.8l-0.2-2.9c9.7-1.3,10.4-2.2,9.9-10.8L409,31c-0.5-9.3-1.7-9.8-9.6-10.1
			l-0.2-2.9l32-1.7c9.8-0.5,13.9-0.9,15.2-1c0.2,2.6,1.1,10.4,1.8,16l-3.1,0.7c-1.1-3.5-2.3-5.7-3.6-7.8c-1.9-3.4-4.3-4-10.6-3.6
			L421,21c-3.2,0.2-3.4,0.5-3.3,3.5l1.3,23.1l11.6-0.6c7.9-0.4,8.3-2,9.2-9.2l3.2-0.2l1.2,21.6l-3.2,0.2c-1.8-7.5-2.7-8.5-10.2-8.1
			L419.2,52l1.1,20.8c0.4,7.3,2.7,7.8,8,7.7l9.7-0.5c6.4-0.3,7.4-1.3,9.5-4.2c1.9-2.3,3.8-6.7,5.1-9.9L455.9,66.5z"/>
		<path d="M498.8,18.9c14.7,1.9,23.5,6,29.2,12.9c4.5,5.6,7.3,13.4,6,23.4c-1.6,12.2-7.8,21.4-16.6,26.4c-8.7,4.9-19,5.9-31.8,4.3
			l-24.3-3.1l0.4-2.9c9.1,0.3,9.6-0.4,10.7-8.9l5.3-41.5c1.1-8.9,0-9.5-8.1-11.4l0.4-2.9L498.8,18.9z M481.4,71.3
			c-1,7.8,2,10.4,9.8,11.4c18.7,2.4,29.9-9.2,32.3-27.4c1.5-11.3-1.3-20.5-8.9-26.5c-4.4-3.6-10.3-5.5-17.3-6.4
			c-4.7-0.6-7.3-0.3-8.4,0.4c-1,0.5-1.6,1.6-2.1,5.7L481.4,71.3z"/>
		<path d="M632.2,99.3c-6.3-1.7-7-1.3-9.3,4.4l-3.4,8.1c-1.4,3.4-2.7,6.6-3.3,9.4c-6.6-1.2-15.3-2.3-23.4-5.7
			c-22-9.2-29.6-28.4-21.4-47.9c8.5-20.4,30.3-25.6,49.6-17.5c9.9,4.1,16.3,9.1,19.1,10.8c-1.3,3.7-3.3,9.8-5.1,16.2l-3.1-0.6
			c1.1-9.2-0.2-13.8-5.5-18.4c-1.9-1.7-5.7-3.8-8.5-5c-14.8-6.2-28.6-0.1-36,17.6c-6.4,15.4-4.9,34,13.8,41.8c3.3,1.4,6.6,2,8.9,1.8
			c2.5-0.3,4.2-0.8,5.9-4.8l3.3-7.9c3-7.1,2.5-8.2-6.5-12.7l1.2-2.8l24.9,10.4L632.2,99.3z"/>
		<path d="M720.3,113.7c-5.7-3.4-8.6-3.3-11.5,0.6c-1.4,1.9-4.1,5.5-9.5,13.5l-6.4,9.4c-6,8.9-11.6,14.9-20.3,16.8
			c-7,1.5-13.7-1.2-19.7-5.3c-5-3.4-9.7-8.1-11.5-13.6c-2.5-7.5-1-15.2,5.9-25.4l15-22.1c5.3-7.8,5-8.8-1.6-14.1l1.6-2.4l22.8,15.5
			l-1.6,2.4c-7.2-4.3-8.4-4-13.7,3.8l-14.7,21.7c-8.6,12.7-7.3,23.7,3.1,30.7c12.3,8.4,21.4,3.4,31.2-11l6-8.9
			c5.4-8,7.4-11.5,8.8-13.9c2.4-4.1,1.4-6.9-4.8-11.6l1.6-2.4l20.8,14.1L720.3,113.7z"/>
		<path d="M735.1,194.8c-2.7,1.9-12.6,7.5-15.6,9.1l-34.9-34.1l2.1-2.1c7.5,6,8.4,6.2,14.7-0.2l29.1-29.8c6.2-6.4,5.8-7.5,0.4-13.9
			l2.1-2.1l20.1,19.6l-2.1,2.1c-6.6-5.3-7.7-5.8-14,0.7l-29.8,30.5c-4.5,4.6-4.9,6.2-0.7,10.5c0.1,0.1,5.4,5.4,5.8,5.9
			c3.8,3.7,5.4,4.4,8.9,4.2c3.8-0.1,8.3-1.6,12.1-3.2L735.1,194.8z"/>
		<path d="M798.4,194.2c8.5,12.1,11.6,21.4,10.3,30.3c-1.1,7.1-4.9,14.4-13.2,20.2c-10,7.1-21,8.7-30.7,5.7
			c-9.5-3-17.2-10-24.7-20.5l-14.2-20l2.4-1.7c5.9,6.9,6.7,6.8,13.8,1.8l34.1-24.2c7.4-5.2,7-6.5,2.9-13.6l2.4-1.7L798.4,194.2z
			 M748.1,216.9c-6.4,4.5-6.3,8.6-1.7,15c10.9,15.4,27,15.8,42,5.2c9.3-6.6,14.2-14.8,13.5-24.5c-0.3-5.7-2.9-11.3-6.9-17.1
			c-2.7-3.8-4.7-5.5-6-5.9c-1.1-0.4-2.2-0.1-5.6,2.3L748.1,216.9z"/>
	</g>
	<g>
		<path d="M840,536.8c-3.6,9.5-10,16.6-19.9,14.6c-7-1.4-11.8-6.4-13.8-13.2c-1.9-5.9-1.9-11.4-0.4-18.6l5.1-25.3l2.9,0.6
			c-0.9,8.9-0.1,9.6,8,11.2l41.2,8.3c8.5,1.7,9.4,0.9,11.8-7.2l2.9,0.6l-5.4,26.9c-1.6,7.7-3.9,12.3-6.8,15.1
			c-3.2,3.1-7.5,4.8-12.7,3.7C843.1,551.7,840.2,542.9,840,536.8z M820.2,515.1c-7.4-1.5-9.6-0.1-11.1,7.2
			c-1.6,8,1.1,16.7,11.9,18.9c10.5,2.1,16.5-4.4,19-16.9l1-4.9L820.2,515.1z M843.6,525.2c-2.3,11.3,1.3,16.8,9.7,18.5
			c7.2,1.4,13.6-1.9,15.6-11.7c0.6-2.9,0.6-4.8,0.1-6c-0.5-0.9-1.5-1.5-4.8-2.1l-19.6-4L843.6,525.2z"/>
		<path d="M794.7,609.8c-2.3-1.6-11.4-8-14-10.1l18.1-47.6l2.7,1c-2.8,9.4-2.2,10.4,5.9,13.4l38.7,14.7c8.7,3.3,9.6,2.4,13.1-4.7
			l2.7,1l-11.4,30c-3.5,9.2-4.8,13.1-5.2,14.3c-2.5-0.8-10-3.2-15.3-4.8l0.6-3.1c3.7,0.4,6.1,0.2,8.6-0.1c3.8-0.3,5.4-2.3,7.6-8.2
			l3.5-9.3c1.2-3,0.9-3.3-1.9-4.4l-21.7-8.2l-4.1,10.9c-2.8,7.4-1.5,8.4,4.7,12.1l-1.2,3l-20.2-7.7l1.2-3c7.5,1.4,8.8,1,11.5-6.1
			l4.1-10.8l-19.5-7.4c-6.9-2.6-8.3-0.7-10.2,4.2l-3.5,9.1c-2.3,6-1.8,7.3,0,10.4c1.4,2.6,4.6,6.2,7,8.7L794.7,609.8z"/>
		<path d="M793.8,681.8c3.4,0.9,7,1.6,9.2,1.5c3.3,0,4.5-0.5,7.4-5.5l5.3-9l-44-25.9c-7.1-4.1-8.5-4-14.1,4.3l-2.5-1.5l15.5-26.3
			l2.5,1.5c-4.4,8.7-3.9,10,3.2,14.2l44,25.9l4.8-8.2c2.9-5,3.2-6.7,1.4-9.9c-1.2-2.1-2.9-4.1-5.6-7.3l1.6-2.7
			c5.2,3.8,10.6,7.7,15.5,10.9l-1.2,2.1c-3,0.1-3.5,1.1-4.9,3.7l-21,35.8c-1.5,2.5-1.6,3.5-0.6,5.8l-1.3,2.2c-4.2-2.5-11-6-16.5-8.6
			L793.8,681.8z"/>
		<path d="M724.8,685.7l2.3,1.9c-3.7,5.8-3.4,7.1,0.6,8.5c4,1.5,9.4,3.3,15.9,5.8l14.4-17.5c-2.6-4.3-4.7-8.1-7.1-12
			c-3.8-6.1-5.4-5.5-11.6,0.5L737,671l15.4-18.7l2.3,1.9c-3.5,5.6-4,7.4,0.9,16.2l28.7,51.7l-1.6,3c-18-6.3-37.9-13.3-56.2-19.7
			c-9.2-3.2-10.4-3-15.8,2.2l-2.3-1.9L724.8,685.7z M774.7,713.1c-4.8-8.3-9.9-17.1-14.3-24.8l-12.5,15.1L774.7,713.1z"/>
		<path d="M678.7,753.9c-1.7-2.9-6.5-13.1-7.8-16.3l36.7-32.1l1.9,2.2c-6.6,7-6.9,7.9-1,14.6l27.4,31.4c5.9,6.7,7,6.4,13.9,1.5
			l1.9,2.2L730.5,776l-1.9-2.2c5.8-6.1,6.4-7.2,0.4-14L701,727.7c-4.2-4.8-5.8-5.4-10.4-1.5c-0.1,0.1-5.8,5-6.3,5.4
			c-4,3.5-4.8,5-4.9,8.6c-0.2,3.8,0.9,8.4,2.3,12.3L678.7,753.9z"/>
		<path d="M628.4,765.1l1.5,2.5c-5.4,4.2-5.6,5.6-2.3,8.2c3.3,2.8,7.8,6.2,13,10.8l19.4-11.6c-1-4.9-1.7-9.2-2.7-13.7
			c-1.5-7-3.2-7-11.1-3.5l-1.5-2.5l20.8-12.4l1.5,2.5c-5.2,4.1-6.3,5.6-4.6,15.6l9.7,58.4l-2.6,2.3c-14.9-12-31.3-25.3-46.3-37.5
			c-7.6-6.1-8.8-6.3-15.6-3.2l-1.5-2.5L628.4,765.1z M666.1,807.7c-1.8-9.5-3.6-19.5-5.2-28.2l-16.8,10.1L666.1,807.7z"/>
		<path d="M529.4,803.8l0.8,2.8c-8.1,3.1-8.2,3.8-5.2,14.6l11.1,41.3c3.3-20.8,8.7-53.4,9.8-63.2l2.6-0.7c5.9,8.3,25,33,37.6,49.2
			c-7.9-35.9-10-43.9-10.5-45.8c-1.6-5.6-4.4-5.8-11.5-4.6l-0.8-2.8l24-6.5l0.8,2.8c-5.7,2.2-7.8,4.1-7.1,9.8
			c0.6,4.6,1.5,8.3,8.9,45.9c1,5.4,2.5,6.8,11.6,5.2l0.8,2.8l-17.6,4.8l-36.3-45.2l-10,57.8l-17.7,4.8l-0.8-2.8
			c8.4-3.4,9.3-4.6,7.2-11.6l-11-38.7c-3.4-10.7-3.8-11.1-12.9-9.6l-0.8-2.8L529.4,803.8z"/>
		<path d="M442.9,830.1c0.5-2.8,2.7-13.7,3.5-16.9l50.9-3l0.2,2.9c-9.7,1.3-10.4,2.3-9.9,10.9l2.4,41.3c0.5,9.3,1.7,9.8,9.6,10
			l0.2,2.9l-32,1.9c-9.8,0.6-13.9,0.9-15.2,1.1c-0.3-2.6-1.1-10.4-1.9-16l3.1-0.7c1.1,3.5,2.3,5.6,3.6,7.8c1.9,3.4,4.3,3.9,10.6,3.6
			l9.9-0.6c3.2-0.2,3.4-0.5,3.3-3.6l-1.3-23.1l-11.6,0.7c-7.9,0.5-8.3,2.1-9.1,9.3l-3.2,0.2l-1.3-21.6l3.2-0.2
			c1.8,7.5,2.7,8.5,10.2,8l11.5-0.7l-1.2-20.8c-0.4-7.3-2.8-7.8-8-7.6l-9.7,0.6c-6.4,0.4-7.4,1.4-9.5,4.2c-1.9,2.3-3.8,6.7-5.1,10
			L442.9,830.1z"/>
		<path d="M400.2,877.9c-14.7-1.8-23.6-5.9-29.3-12.8c-4.5-5.6-7.3-13.4-6.1-23.4c1.5-12.2,7.7-21.4,16.5-26.5c8.6-5,19-6,31.8-4.4
			l24.4,3l-0.4,2.9c-9.1-0.3-9.6,0.4-10.6,8.9l-5.1,41.5c-1.1,8.9,0.1,9.5,8.1,11.4l-0.4,2.9L400.2,877.9z M417.4,825.4
			c1-7.8-2.1-10.4-9.9-11.4c-18.7-2.3-29.9,9.3-32.1,27.5c-1.4,11.3,1.4,20.5,9,26.5c4.4,3.6,10.3,5.5,17.3,6.4
			c4.7,0.6,7.3,0.3,8.4-0.4c1-0.5,1.6-1.6,2.1-5.7L417.4,825.4z"/>
		<path d="M266.5,798.1c6.3,1.7,7,1.3,9.3-4.4l3.4-8.1c1.4-3.4,2.6-6.6,3.2-9.4c6.6,1.1,15.3,2.2,23.4,5.6
			c22,9.1,29.7,28.3,21.6,47.8c-8.5,20.4-30.2,25.8-49.6,17.7c-9.9-4.1-16.3-9-19.1-10.8c1.3-3.7,3.3-9.8,5-16.2l3.1,0.6
			c-1.1,9.2,0.3,13.8,5.5,18.4c1.9,1.7,5.7,3.8,8.5,5c14.8,6.1,28.6-0.1,36-17.8c6.4-15.4,4.8-34-14-41.8c-3.3-1.4-6.6-1.9-8.9-1.8
			c-2.5,0.3-4.2,0.9-5.9,4.8l-3.3,7.9c-2.9,7.1-2.5,8.2,6.5,12.7l-1.2,2.8l-24.9-10.3L266.5,798.1z"/>
		<path d="M178.3,784c5.7,3.3,8.7,3.3,11.5-0.6c1.4-1.9,4.1-5.5,9.4-13.5l6.3-9.4c6-8.9,11.6-15,20.2-16.9c7-1.5,13.8,1.2,19.8,5.2
			c5,3.4,9.7,8.1,11.6,13.6c2.5,7.5,1,15.2-5.8,25.4L236.4,810c-5.3,7.8-4.9,8.8,1.6,14.1l-1.6,2.4l-22.9-15.4l1.6-2.4
			c7.3,4.2,8.4,4,13.7-3.8l14.6-21.8c8.5-12.7,7.2-23.7-3.2-30.7c-12.4-8.3-21.4-3.3-31.1,11.2l-6,8.9c-5.4,8-7.3,11.5-8.7,14
			c-2.4,4.1-1.4,6.9,4.8,11.6l-1.6,2.4l-20.9-14L178.3,784z"/>
		<path d="M163.2,703c2.7-1.9,12.6-7.5,15.6-9.1l35,33.9l-2,2.1c-7.5-6-8.5-6.2-14.7,0.2l-29,29.9c-6.2,6.4-5.8,7.5-0.4,13.9l-2,2.1
			l-20.2-19.6l2-2.1c6.6,5.2,7.7,5.7,14-0.7l29.7-30.6c4.5-4.6,4.9-6.2,0.7-10.5c-0.1-0.1-5.4-5.4-5.9-5.8c-3.8-3.7-5.4-4.4-9-4.2
			c-3.8,0.1-8.3,1.6-12.1,3.3L163.2,703z"/>
		<path d="M99.9,703.8c-8.6-12-11.6-21.3-10.4-30.2c1.1-7.1,4.9-14.4,13.1-20.3c10-7.1,21-8.8,30.7-5.8c9.5,3,17.3,9.9,24.8,20.4
			l14.3,20l-2.4,1.7c-5.9-6.8-6.8-6.8-13.8-1.8l-34,24.3c-7.3,5.2-6.9,6.5-2.9,13.7l-2.4,1.7L99.9,703.8z M150.1,680.9
			c6.4-4.6,6.2-8.6,1.7-15c-11-15.4-27.1-15.7-42-5c-9.3,6.6-14.1,14.9-13.4,24.5c0.3,5.7,2.9,11.3,7,17c2.7,3.8,4.7,5.5,6,5.9
			c1.1,0.4,2.2,0.1,5.6-2.3L150.1,680.9z"/>
	</g>
	<g>
		<g>
			<g>
				<g>
					<path d="M540.5,384.1c-16.9-20.6-39.7-35.3-65.4-42.1l-2,2.4c36.4,9.2,65.8,34.4,81.2,67.1c-16.7-31.8-47-55.9-83.8-64.1
						l-2,2.4c55.3,11.6,95.9,60.1,97.4,116.9h2.9C569.5,436.8,559.4,407.4,540.5,384.1z M370.7,367.4
						c-16.5,11.6-29.6,26.8-38.6,44.1c16.9-36.4,50.7-62.1,89.7-69.1l-2.2-2.4c-49.6,9.7-90.8,49.4-99.8,102.5
						c-1.3,7.9-2,16-1.8,23.9h1.3h1.5c0.2-5.7,0.7-11.4,1.8-17.1c5.3-32.5,23-60.6,49.8-79.6c16.5-11.6,35.1-18.9,54.4-21.7
						l-2.2-2.4C405.4,348.6,387,355.8,370.7,367.4z"/>
				</g>
			</g>
		</g>
		<g>
			<g>
				<path d="M446.2,589c-40.6,0-78.8-19.7-102.2-52.9l2.2-1.5c23,32.3,60.3,51.6,100,51.6c39.9,0,77.7-19.5,100.5-52.4l2.2,1.5
					C525.6,569.1,487,589,446.2,589z"/>
			</g>
		</g>
		<g>
			<g>
				<path d="M469.7,310.4l12.7,12.1L447.7,358l-34.9-36.9l11-11c0.7,0,1.5,0,2.4,0c2.2,0,5.3,0,9,0
					C447.5,310.4,465.3,310.4,469.7,310.4 M470.8,307.5c0,0-21.3,0-35.5,0c-7,0-12.5,0-12.5,0l-13.6,13.6l38.6,40.8l38.6-39.7
					L470.8,307.5L470.8,307.5z"/>
			</g>
		</g>
		<g>
			<g>
				<rect x="411.3" y="320.7" width="72.6" height="0.9"/>
			</g>
		</g>
		<g>
			<g>
				<path d="M447.3,360.9V360l-27.2-38.8l4.6-11.6l5,10.5l6.6-12.5l11.6,12.7l8.3-12.7l8.3,12.7l5.3-11.6l7.9,12.5l-0.2,0.2
					l-29.8,39.3l-0.2-0.2L447.3,360.9z M464.9,321.6l-16.2,36.2l27.9-36.9l-6.6-10.5l-4.6,10.5l0.2,0.4L464.9,321.6L464.9,321.6z
					 M430.4,321.6l16.9,36.2v-36.2H430.4z M448.2,321.6v35.1l15.6-35.1H448.2z M421.2,321.1l24.1,34.2l-15.8-33.8h-0.4l0.2-0.4
					l-4.4-9.2L421.2,321.1z M448.6,320.7h15.1l-7.5-11.2L448.6,320.7z M430.4,320.7h16.2l-10.3-11.4L430.4,320.7z"/>
			</g>
		</g>
		<g>
			<g>
				<path class="st0" d="M387,446.4c0,0,4.2,0.9,6.4-2.4c2-3.3-3.1-7-6.4-5c-3.3,2-5,7.7-2.2,13.8s14,9,23,6.8
					c9-2.2,19.7-10.3,29.4-23.3c9.4-12.7,9.4-16,14.9-20.4l-9.9,2l-7.7,11.4c0,0-10.5,8.3-19.1,7.2c-8.6-1.1-7.5-14.5-0.7-25.5
					c6.6-11,17.3-21.1,30.1-25.5c12.7-4.2,21.3-1.3,21.3,2.4c0,3.7-2.9,12.1-16.2,12.9c-13.8,0.9-23-5.9-24.8-12.5
					c-1.8-6.6,4.4-15.6,4.4-15.6s-6.1,6.4-5.9,13.4c0.2,7,9.9,16.2,22.8,16.7c12.9,0.4,23.9-5,23.7-12.7s-10.3-10.8-24.8-6.1
					c-14.3,4.6-33.8,18.2-40.8,30.7c-6.6,11.8-2.9,20.2,5.3,22.8c7.9,2.6,20.2-3.7,24.4-6.4c0,0-11.6,18.2-19.7,23.5
					c-7.9,5.3-16.7,4.4-21.1,2.9C388.7,455.9,385.7,451.9,387,446.4z"/>
			</g>
		</g>
		<g>
			<g>
				<path class="st0" d="M413.3,449.3c0,0-3.9-0.7-4.8,2.9c-0.9,3.5,3.1,8.8,12.1,7.5c8.8-1.3,17.3-7.2,28.3-24.4
					c10.8-16.9,20.2-39.5,39.9-44.5c0.2,0,0.2,0,0.4,0c0,0-18.4,1.3-30.3,18.6c-11.8,17.3-20.8,36-29.2,43c-8.1,7-15.4,5-15.4,5
					S420.5,450.8,413.3,449.3z"/>
			</g>
		</g>
		<g>
			<g>
				<path class="st0" d="M431.5,438.1c0,0-12.7,1.8-17.1-5.9c-4.2-7.7-3.5-22.2,17.3-33.1c21.1-11,41.5-10.3,50.7-3.5
					c9,6.8,5.5,21.7-4.6,25.9c-8.3,3.3-14.7,2.9-14.7,2.9s9.7,4.6,6.6,11.6c-3.1,7-10.3,23.9-3.1,23.5c7.2-0.7,18-10.5,29-25.9
					c0,0-12.3,20.2-23.9,25.5s-16.5-0.9-12.7-9s9.4-16.7,7.7-21.1s-7.9-5-7.9-5l0.2-0.7c0,0,10.8,0.9,17.6-5.5
					c6.4-6.1,7-12.9,4.2-18.6c-2.2-4.6-14.3-9-26.3-6.4s-27.9,9-33.6,18.9c-5.7,10.1-7,18.6-0.4,23.7
					C424.3,438.3,431.5,438.1,431.5,438.1z"/>
			</g>
		</g>
		<g>
			<g>
				<g>
					<path d="M298.3,504.3c-3.3,0.4-3.5,0.9-3.5,3.9v4.4c0,2,0,3.5,0.4,5c-3.5,0.9-8.1,2.2-12.7,2.2c-12.5,0-20.8-7.5-20.8-18
						c0-12.3,10.5-18.4,21.7-18.4c4.8,0,9.2,1.3,11.2,1.5c0.2,2,0.4,4.8,0.9,8.8l-2,0c-1.3-6.6-5.7-8.8-11.2-8.8
						c-8.3,0-14.7,5.9-14.7,15.8c0,7.7,4.6,16.9,15.4,16.9c1.8,0,3.5-0.4,4.8-0.9c1.1-0.7,1.8-1.3,1.8-3.5V509
						c0-3.9-0.4-4.4-5.9-4.8v-1.5h14.5L298.3,504.3L298.3,504.3z"/>
				</g>
			</g>
			<g>
				<g>
					<path d="M321.4,483.3c9.7,0,18.4,7,18.4,17.8c0,11.6-8.8,18.9-19.1,18.9s-18.6-7.7-18.6-18
						C302.1,492.1,309.3,483.3,321.4,483.3L321.4,483.3z M320.3,485.3c-6.1,0-12.1,5-12.1,15.1c0,9.9,5.9,17.3,13.8,17.3
						c6.1,0,11.8-4.8,11.8-15.4C333.7,491.2,327.5,485.3,320.3,485.3L320.3,485.3L320.3,485.3z"/>
				</g>
			</g>
			<g>
				<g>
					<path d="M371.2,510.3c-0.4,1.8-1.5,7-2,8.8h-25.7v-1.5c4.6-0.4,5.3-0.7,5.3-5.5V491c0-4.6-0.4-5-4.8-5.3v-1.5h14.9v1.5
						c-4.4,0.2-4.8,0.7-4.8,5.3v20.8c0,2.9,0.2,3.9,1.3,4.6c1.1,0.7,2.9,0.7,5,0.7c2.9,0,4.8-0.4,6.1-1.8c1.1-1.1,2-2.9,3.1-5.3
						L371.2,510.3z"/>
				</g>
			</g>
			<g>
				<g>
					<path d="M390.3,484.2c7,0,12.3,1.5,15.8,4.6c2.6,2.6,4.6,6.6,4.6,11.6c0,6.4-2.6,11.2-6.8,14.3c-4.2,3.1-9.9,4.4-16.7,4.4
						h-13.6v-1.5c4.6-0.4,5.3-0.7,5.3-5.3V491c0-4.6-0.4-4.8-4.6-5.3v-1.8L390.3,484.2L390.3,484.2z M383.9,511.8
						c0,4.2,2,5.3,5.9,5.3c10.3,0,15.1-7.5,15.1-15.8c0-5.5-2.2-10.1-6.1-12.7c-2.6-1.8-5.9-2.4-9.9-2.4c-2.4,0-3.7,0.4-4.4,0.7
						c-0.4,0.4-0.7,1.1-0.7,3.1V511.8L383.9,511.8z"/>
				</g>
			</g>
			<g>
				<g>
					<path d="M447.5,519.5c-0.7,0-1.3,0-2-0.2c-4.4-0.2-6.8-1.3-9.2-4.8c-2-2.6-3.7-5.9-5.3-8.6c-1.1-1.5-2-2.2-4.8-2.2h-1.5v8.6
						c0,4.6,0.4,4.8,4.8,5.3v1.5h-14.9v-1.5c4.4-0.4,5-0.9,5-5.3V491c0-4.6-0.4-4.8-4.8-5.3v-1.5h14c4.2,0,6.8,0.4,9,2
						c2.2,1.3,3.7,3.7,3.7,7c0,4.6-3.1,7.5-7,9.2c0.9,1.8,3.3,5.3,4.8,7.7c2,2.9,3.1,4.4,4.4,5.7c1.3,1.5,2.6,2.2,3.9,2.4
						L447.5,519.5z M427.3,501.9c2.9,0,4.6-0.4,5.9-1.5c2.2-1.5,2.9-3.7,2.9-6.6c0-5.7-3.7-7.9-7.9-7.9c-1.8,0-2.6,0.2-2.9,0.4
						c-0.4,0.2-0.7,0.9-0.7,2.4v13.2H427.3z"/>
				</g>
			</g>
			<g>
				<g>
					<path d="M449.5,519v-1.5c4.4-0.4,5-0.7,5-5.3V491c0-4.6-0.4-5-5-5.3v-1.5h15.1v1.5c-4.4,0.2-4.8,0.7-4.8,5.3v21.3
						c0,4.6,0.4,5,4.8,5.3v1.5H449.5z"/>
				</g>
			</g>
			<g>
				<g>
					<path d="M507,485.7c-3.1,0.2-4.4,0.9-4.6,3.3c-0.2,1.8-0.4,4.2-0.4,9.2v21.5h-1.8L476,491.6l0,0v13.2c0,5,0.2,7.5,0.4,9
						c0.2,2.9,1.5,3.5,5.3,3.7v1.5h-13.2v-1.5c3.1-0.2,4.6-0.9,4.8-3.5c0.2-1.8,0.4-4.2,0.4-9.2v-11.6c0-3.9-0.2-4.2-1.1-5.5
						c-1.1-1.3-2.4-1.8-4.8-2v-1.5h8.6l23.3,26.3h0.2V498c0-5-0.2-7.5-0.4-9c-0.2-2.6-1.5-3.3-5.5-3.5v-1.5h13.2L507,485.7
						L507,485.7z"/>
				</g>
			</g>
			<g>
				<g>
					<path d="M547.1,504.3c-3.3,0.4-3.5,0.9-3.5,3.9v4.4c0,2,0,3.5,0.4,5c-3.5,0.9-8.1,2.2-12.7,2.2c-12.5,0-20.8-7.5-20.8-18
						c0-12.3,10.5-18.4,21.7-18.4c4.8,0,9.2,1.3,11.2,1.5c0.2,2,0.4,4.8,0.9,8.8l-1.5,0.4c-1.3-6.6-5.7-8.8-11.2-8.8
						c-8.3,0-14.7,5.9-14.7,15.8c0,7.7,4.6,16.9,15.4,16.9c1.8,0,3.5-0.4,4.8-0.9c1.1-0.7,1.8-1.3,1.8-3.5v-4.4
						c0-3.9-0.4-4.4-5.9-4.8V503h14.5v1.3H547.1z"/>
				</g>
			</g>
			<g>
				<g>
					<path d="M569.5,492.5c-0.9-3.5-2.6-7.2-7.2-7.2c-4.2,0-6.1,2.9-6.1,5.9c0,3.7,2.6,5.7,7,7.7c4.6,2.2,9.4,4.8,9.4,10.8
						c0,5.7-4.8,10.3-12.5,10.3c-2.2,0-4.2-0.4-5.5-0.9s-2.2-0.9-2.6-1.1c-0.4-1.1-1.1-5.9-1.5-8.6l1.8-0.4c0.9,3.5,3.5,9,9.2,9
						c3.9,0,6.4-2.4,6.4-6.4s-2.9-5.7-7-7.9c-3.7-2-9-4.6-9-10.5c0-5.3,4.4-9.9,11.4-9.9c2.6,0,5,0.7,7,1.3c0.2,2,0.4,4.2,0.9,7.7
						L569.5,492.5z"/>
				</g>
			</g>
			<g>
				<g>
					<path d="M603.3,510.3c-0.4,1.8-1.5,7-2,8.8h-25.5v-1.5c4.6-0.4,5.3-0.7,5.3-5.5V491c0-4.6-0.4-5-4.8-5.3v-1.5h14.9v1.5
						c-4.4,0.2-4.8,0.7-4.8,5.3v20.8c0,2.9,0.2,3.9,1.3,4.6c1.1,0.7,2.9,0.7,5,0.7c2.9,0,4.8-0.4,6.1-1.8c1.1-1.1,2-2.9,3.1-5.3
						L603.3,510.3z"/>
				</g>
			</g>
			<g>
				<g>
					<path d="M635.3,485.7c-3.7,0.4-4.6,1.1-6.6,4.4c-2.4,3.7-4.2,6.6-6.8,11.4c-0.9,1.5-0.9,2-0.9,3.5v7c0,4.6,0.4,5,5.5,5.3v1.5
						h-16v-1.5c4.8-0.4,5.3-0.7,5.3-5.3v-6.8c0-1.1-0.2-1.5-1.1-3.3c-1.8-3.1-3.7-6.6-6.8-11.6c-2.2-3.7-2.9-4.4-6.1-4.6v-1.5h13.6
						v1.5c-3.9,0.4-3.7,1.3-2.9,3.1c2.2,4.2,5,8.6,7.2,12.5c2-3.5,5-8.8,6.6-12.1c1.1-2.4,1.1-3.1-3.3-3.5v-1.5h12.5L635.3,485.7
						L635.3,485.7z"/>
				</g>
			</g>
		</g>
	</g>
</g>
<rect x="2282.5" y="-319.5" width="897" height="897"/>
</svg>
